<svg width="48" height="48" viewBox="0 0 48 48" fill="none" xmlns="http://www.w3.org/2000/svg">
<mask id="mask0_2595_1391" style="mask-type:alpha" maskUnits="userSpaceOnUse" x="0" y="0" width="48" height="48">
<rect width="48" height="48" rx="14" fill="#C4C4C4"/>
</mask>
<g mask="url(#mask0_2595_1391)">
<path d="M12 34.4436L12.2059 34.1554L21.9425 15.6804L21.9631 15.4848L17.6711 7.4226C17.3113 6.74727 16.2989 6.91804 16.181 7.67406L12 34.4436Z" fill="#FFC24A"/>
<path d="M12.1221 34.2237L12.2777 33.9201L21.9124 15.6386L17.631 7.5436C17.2752 6.87535 16.3716 7.04573 16.2548 7.7938L12.1221 34.2237Z" fill="#FFA712"/>
<path d="M25.0925 21.5829L28.2883 18.31L25.0916 12.2074C24.7881 11.6297 23.9409 11.6279 23.6406 12.2074L21.9326 15.4644V15.7418L25.0924 21.5829H25.0925Z" fill="#F4BD62"/>
<path d="M25.0349 21.4471L28.1418 18.2651L25.0349 12.349C24.7399 11.7874 24.0231 11.7285 23.7312 12.2918L22.0143 15.5995L21.9629 15.7686L25.0349 21.4471Z" fill="#FFA50E"/>
<path d="M12 34.4439L12.0933 34.3501L12.4323 34.2124L24.8913 21.7996L25.0492 21.3699L21.9412 15.4473L12 34.4439Z" fill="#F6820C"/>
<path d="M25.4912 40.7037L36.767 34.4152L33.547 14.5844C33.4463 13.9639 32.6851 13.7187 32.241 14.1635L12 34.4437L23.2111 40.7032C23.5595 40.8978 23.952 41 24.3511 41.0001C24.7502 41.0002 25.1427 40.8981 25.4912 40.7037Z" fill="#FDE068"/>
<path d="M36.6658 34.3626L33.4703 14.6824C33.3704 14.0666 32.7374 13.8118 32.2966 14.2534L12.125 34.4053L23.213 40.6028C23.5588 40.7959 23.9483 40.8973 24.3443 40.8974C24.7404 40.8975 25.1299 40.7963 25.4758 40.6034L36.6659 34.3625L36.6658 34.3626Z" fill="#FCCA3F"/>
<path d="M25.491 40.5182C25.1425 40.7126 24.75 40.8146 24.3509 40.8145C23.9518 40.8144 23.5594 40.7123 23.211 40.5177L12.0902 34.3482L12 34.4435L23.211 40.7031C23.5594 40.8976 23.9519 40.9998 24.351 40.9999C24.7501 41 25.1426 40.8979 25.4911 40.7035L36.7669 34.415L36.7392 34.2451L25.4911 40.5183L25.491 40.5182Z" fill="#EEAB37"/>
</g>
</svg>
