<svg width="16" height="16" viewBox="0 0 16 16" fill="none" xmlns="http://www.w3.org/2000/svg">
<path fill-rule="evenodd" clip-rule="evenodd" d="M10.8444 1.5C10.2965 1.5 9.77108 1.71765 9.38366 2.10507L2.91784 8.57089C2.26638 9.22235 1.90039 10.1059 1.90039 11.0272C1.90039 11.9485 2.26638 12.8321 2.91784 13.4836C3.56929 14.135 4.45286 14.501 5.37417 14.501C6.29547 14.501 7.17904 14.135 7.8305 13.4836L14.2963 7.01773C14.5892 6.72484 15.0641 6.72484 15.357 7.01773C15.6499 7.31063 15.6499 7.7855 15.357 8.07839L8.89116 14.5442C7.95839 15.477 6.69329 16.001 5.37417 16.001C4.05504 16.001 2.78994 15.477 1.85718 14.5442C0.924412 13.6115 0.400391 12.3464 0.400391 11.0272C0.400391 9.7081 0.924412 8.443 1.85718 7.51023L8.323 1.04441C8.99172 0.375687 9.89871 0 10.8444 0C11.7902 0 12.6971 0.375687 13.3659 1.04441C14.0346 1.71314 14.4103 2.62013 14.4103 3.56585C14.4103 4.51157 14.0346 5.41856 13.3659 6.08729L6.89301 12.5531C6.89292 12.5532 6.89311 12.553 6.89301 12.5531C6.48835 12.9576 5.93931 13.1852 5.36713 13.1852C4.79481 13.1852 4.24594 12.9578 3.84125 12.5531C3.43656 12.1484 3.20921 11.5995 3.20921 11.0272C3.20921 10.4549 3.43656 9.90603 3.84125 9.50134L9.81488 3.53474C10.1079 3.24202 10.5828 3.2423 10.8755 3.53537C11.1683 3.82843 11.168 4.30331 10.8749 4.59603L4.90191 10.562C4.77852 10.6854 4.70921 10.8527 4.70921 11.0272C4.70921 11.2017 4.77852 11.3691 4.90191 11.4924C5.02529 11.6158 5.19264 11.6852 5.36713 11.6852C5.54162 11.6852 5.70897 11.6158 5.83235 11.4924L12.3052 5.02663C12.6926 4.63921 12.9103 4.11375 12.9103 3.56585C12.9103 3.01795 12.6926 2.4925 12.3052 2.10507C11.9178 1.71765 11.3923 1.5 10.8444 1.5Z" fill="#8A9099"/>
</svg>
