<svg width="16" height="18" viewBox="0 0 16 18" fill="none" xmlns="http://www.w3.org/2000/svg">
<path d="M14.8748 12.6539C14.2581 11.9403 13.1042 10.8668 13.1042 7.35019C13.1042 4.67926 11.3652 2.54113 9.0204 2.01657V1.3002C9.0204 0.692789 8.56331 0.200195 7.99961 0.200195C7.43591 0.200195 6.97882 0.692789 6.97882 1.3002V2.01657C4.63401 2.54113 2.89504 4.67926 2.89504 7.35019C2.89504 10.8668 1.74114 11.9403 1.12446 12.6539C0.932941 12.8756 0.848035 13.1407 0.849631 13.4002C0.853143 13.9639 1.26395 14.5002 1.87425 14.5002H14.125C14.7353 14.5002 15.1464 13.9639 15.1496 13.4002C15.1512 13.1407 15.0663 12.8753 14.8748 12.6539ZM3.00516 12.8502C3.68249 11.8887 4.42302 10.2951 4.42654 7.37013C4.42654 7.36326 4.42462 7.35707 4.42462 7.35019C4.42462 5.22376 6.02507 3.5002 7.99961 3.5002C9.97415 3.5002 11.5746 5.22376 11.5746 7.35019C11.5746 7.35707 11.5727 7.36326 11.5727 7.37013C11.5762 10.2954 12.3167 11.8891 12.9941 12.8502H3.00516ZM7.99961 17.8002C9.12701 17.8002 10.0415 16.8154 10.0415 15.6002H5.95772C5.95772 16.8154 6.87221 17.8002 7.99961 17.8002Z" fill="#3F434A"/>
</svg>
