<svg width="16" height="16" viewBox="0 0 16 16" fill="none" xmlns="http://www.w3.org/2000/svg">
<path fill-rule="evenodd" clip-rule="evenodd" d="M0.75 0.330078C0.335786 0.330078 0 0.665865 0 1.08008C0 1.49429 0.335786 1.83008 0.75 1.83008H2.77148L3.30451 4.49326C3.30772 4.51354 3.31173 4.53354 3.31652 4.55325L4.4169 10.051L4.41704 10.0517C4.51172 10.5275 4.77064 10.9549 5.14854 11.2591C5.52457 11.5618 5.99456 11.7234 6.47705 11.716H12.8703C13.3528 11.7234 13.8228 11.5618 14.1988 11.2591C14.5769 10.9547 14.8359 10.5271 14.9305 10.051L14.9305 10.051L14.9316 10.0454L15.9861 4.51588C16.0279 4.29632 15.9697 4.06952 15.8272 3.8973C15.6847 3.72508 15.4729 3.62538 15.2493 3.62538H4.66056L4.12166 0.932885C4.0515 0.582367 3.74371 0.330078 3.38624 0.330078H0.75ZM5.88794 9.75771L4.96078 5.12538H14.3428L13.4588 9.76097C13.4324 9.89088 13.3615 10.0075 13.2582 10.0907C13.1544 10.1743 13.0244 10.2187 12.8911 10.2161L12.8767 10.216H6.47065L6.45628 10.2161C6.32297 10.2187 6.19301 10.1743 6.08914 10.0907C5.98528 10.0071 5.91413 9.88957 5.88816 9.75879L5.88794 9.75771ZM6.02249 14.3526C6.07288 14.3526 6.11372 14.3117 6.11372 14.2613C6.11372 14.211 6.07288 14.1701 6.02249 14.1701C5.97211 14.1701 5.93127 14.211 5.93127 14.2613C5.93127 14.3117 5.97211 14.3526 6.02249 14.3526ZM4.61372 14.2613C4.61372 13.4833 5.24445 12.8526 6.02249 12.8526C6.80054 12.8526 7.43127 13.4833 7.43127 14.2613C7.43127 15.0394 6.80054 15.6701 6.02249 15.6701C5.24445 15.6701 4.61372 15.0394 4.61372 14.2613ZM13.2722 14.3526C13.3225 14.3526 13.3634 14.3117 13.3634 14.2613C13.3634 14.211 13.3225 14.1701 13.2722 14.1701C13.2218 14.1701 13.1809 14.211 13.1809 14.2613C13.1809 14.3117 13.2218 14.3526 13.2722 14.3526ZM11.8634 14.2613C11.8634 13.4833 12.4941 12.8526 13.2722 12.8526C14.0502 12.8526 14.6809 13.4833 14.6809 14.2613C14.6809 15.0394 14.0502 15.6701 13.2722 15.6701C12.4941 15.6701 11.8634 15.0394 11.8634 14.2613Z" fill="#8A9099"/>
</svg>
