<svg width="14" height="16" viewBox="0 0 14 16" fill="none" xmlns="http://www.w3.org/2000/svg">
<path fill-rule="evenodd" clip-rule="evenodd" d="M1.8112 1.8112C2.01046 1.61194 2.28071 1.5 2.5625 1.5H11.6V10.875H2.5625C2.19235 10.875 1.83047 10.9551 1.5 11.1057V2.5625C1.5 2.28071 1.61194 2.01046 1.8112 1.8112ZM1.5 13.4375C1.5 13.7193 1.61194 13.9895 1.8112 14.1888C2.01046 14.3881 2.28071 14.5 2.5625 14.5H11.6V12.375H2.5625C2.28071 12.375 2.01046 12.4869 1.8112 12.6862C1.61194 12.8855 1.5 13.1557 1.5 13.4375ZM13.1 11.625V0.75C13.1 0.335786 12.7642 0 12.35 0H2.5625C1.88288 0 1.2311 0.269977 0.750539 0.750539C0.269977 1.2311 0 1.88288 0 2.5625V13.4375C0 14.1171 0.269977 14.7689 0.750539 15.2495C1.2311 15.73 1.88288 16 2.5625 16H12.35C12.7642 16 13.1 15.6642 13.1 15.25V11.625Z" fill="#8A9099"/>
</svg>
