<svg width="10" height="10" viewBox="0 0 10 10" fill="none" xmlns="http://www.w3.org/2000/svg">
<path fill-rule="evenodd" clip-rule="evenodd" d="M8.68746 9.60929C8.94199 9.86382 9.35468 9.86382 9.60921 9.60929C9.86383 9.35475 9.86383 8.94198 9.60921 8.68745L5.92202 5.00018L9.60929 1.31292C9.86383 1.05837 9.86383 0.645662 9.60929 0.39111C9.35468 0.136557 8.94199 0.136557 8.68746 0.39111L5.00018 4.07834L1.31292 0.391118C1.05837 0.136565 0.645662 0.136565 0.39111 0.391118C0.136557 0.64567 0.136557 1.05839 0.39111 1.31294L4.07835 5.00018L0.391118 8.68745C0.136565 8.94198 0.136565 9.35467 0.391118 9.60929C0.64567 9.86382 1.05838 9.86382 1.31293 9.60929L5.00018 5.92202L8.68746 9.60929Z" fill="#3F434A"/>
</svg>
