<svg width="16" height="16" viewBox="0 0 16 16" fill="none" xmlns="http://www.w3.org/2000/svg">
<path fill-rule="evenodd" clip-rule="evenodd" d="M6.04975 1.70503C6.18102 1.57375 6.35907 1.5 6.54472 1.5H9.44472C9.63037 1.5 9.80842 1.57375 9.9397 1.70503C10.071 1.8363 10.1447 2.01435 10.1447 2.2V2.9L5.84472 2.89999V2.2C5.84472 2.01435 5.91847 1.8363 6.04975 1.70503ZM4.34472 2.89999V2.2C4.34472 1.61652 4.57651 1.05694 4.98909 0.644365C5.40167 0.231785 5.96125 0 6.54472 0H9.44472C10.0282 0 10.5878 0.231785 11.0004 0.644365C11.4129 1.05694 11.6447 1.61652 11.6447 2.2V2.9L14.5197 2.89999C14.9339 2.89999 15.2697 3.23578 15.2697 3.64999C15.2697 4.06421 14.9339 4.39999 14.5197 4.39999H13.8197V13.8C13.8197 14.3835 13.5879 14.9431 13.1754 15.3556C12.7628 15.7682 12.2032 16 11.6197 16H4.36972C3.78625 16 3.22667 15.7682 2.81409 15.3556C2.40151 14.9431 2.16972 14.3835 2.16972 13.8V4.39999H1.46973C1.05551 4.39999 0.719727 4.06421 0.719727 3.64999C0.719727 3.23578 1.05551 2.89999 1.46973 2.89999H4.34472ZM3.66972 13.8V4.4H12.3197V13.8C12.3197 13.9857 12.246 14.1637 12.1147 14.295C11.9834 14.4263 11.8054 14.5 11.6197 14.5H4.36972C4.18407 14.5 4.00602 14.4263 3.87475 14.295C3.74347 14.1637 3.66972 13.9857 3.66972 13.8ZM6.54474 6.52502C6.95895 6.52502 7.29474 6.86081 7.29474 7.27502V11.625C7.29474 12.0392 6.95895 12.375 6.54474 12.375C6.13053 12.375 5.79474 12.0392 5.79474 11.625V7.27502C5.79474 6.86081 6.13053 6.52502 6.54474 6.52502ZM10.1947 7.27502C10.1947 6.86081 9.85892 6.52502 9.4447 6.52502C9.03049 6.52502 8.6947 6.86081 8.6947 7.27502V11.625C8.6947 12.0392 9.03049 12.375 9.4447 12.375C9.85892 12.375 10.1947 12.0392 10.1947 11.625V7.27502Z" fill="#3F434A"/>
</svg>
