<svg width="10" height="16" viewBox="0 0 10 16" fill="none" xmlns="http://www.w3.org/2000/svg">
<path fill-rule="evenodd" clip-rule="evenodd" d="M5.75433 0.75C5.75433 0.335786 5.41855 0 5.00433 0C4.59012 0 4.25433 0.335786 4.25433 0.75V2.63635H3.35662C2.5459 2.63635 1.76839 2.95841 1.19513 3.53167C0.621862 4.10494 0.299805 4.88245 0.299805 5.69317C0.299805 6.50389 0.621862 7.2814 1.19513 7.85467C1.76839 8.42793 2.5459 8.74999 3.35662 8.74999H4.25433V11.8636H1.0498C0.635591 11.8636 0.299805 12.1994 0.299805 12.6136C0.299805 13.0278 0.635591 13.3636 1.0498 13.3636H4.25433V15.25C4.25433 15.6642 4.59012 16 5.00433 16C5.41855 16 5.75433 15.6642 5.75433 15.25V13.3636H6.65208C7.4628 13.3636 8.24031 13.0416 8.81358 12.4683C9.38684 11.895 9.7089 11.1175 9.7089 10.3068C9.7089 9.49609 9.38684 8.71858 8.81358 8.14531C8.24031 7.57205 7.4628 7.24999 6.65208 7.24999H5.75433V4.13635H8.2998C8.71402 4.13635 9.0498 3.80057 9.0498 3.38635C9.0498 2.97214 8.71402 2.63635 8.2998 2.63635H5.75433V0.75ZM4.25433 4.13635H3.35662C2.94373 4.13635 2.54775 4.30037 2.25579 4.59233C1.96383 4.88429 1.7998 5.28028 1.7998 5.69317C1.7998 6.10606 1.96383 6.50205 2.25579 6.79401C2.54775 7.08597 2.94373 7.24999 3.35662 7.24999H4.25433V4.13635ZM5.75433 8.74999V11.8636H6.65208C7.06497 11.8636 7.46096 11.6996 7.75291 11.4076C8.04487 11.1157 8.2089 10.7197 8.2089 10.3068C8.2089 9.89391 8.04487 9.49793 7.75291 9.20597C7.46096 8.91401 7.06497 8.74999 6.65208 8.74999H5.75433Z" fill="#3F434A"/>
</svg>
