<svg width="4" height="20" viewBox="0 0 4 20" fill="none" xmlns="http://www.w3.org/2000/svg">
<path fill-rule="evenodd" clip-rule="evenodd" d="M1.9998 15.85C3.07676 15.85 3.9498 16.723 3.9498 17.8C3.9498 18.877 3.07676 19.75 1.9998 19.75C0.922849 19.75 0.0498047 18.877 0.0498047 17.8C0.0498047 16.723 0.922849 15.85 1.9998 15.85ZM1.9998 8.05C3.07676 8.05 3.9498 8.92305 3.9498 10C3.9498 11.077 3.07676 11.95 1.9998 11.95C0.922849 11.95 0.0498047 11.077 0.0498047 10C0.0498047 8.92305 0.922849 8.05 1.9998 8.05ZM3.9498 2.2C3.9498 1.12304 3.07676 0.25 1.9998 0.25C0.922849 0.25 0.0498047 1.12304 0.0498047 2.2C0.0498047 3.27696 0.922849 4.15 1.9998 4.15C3.07676 4.15 3.9498 3.27696 3.9498 2.2Z" fill="#8A9099"/>
</svg>
