<svg width="20" height="4" viewBox="0 0 20 4" fill="none" xmlns="http://www.w3.org/2000/svg">
<path fill-rule="evenodd" clip-rule="evenodd" d="M4.15 1.9998C4.15 3.07676 3.27696 3.9498 2.2 3.9498C1.12304 3.9498 0.25 3.07676 0.25 1.9998C0.25 0.922849 1.12304 0.0498047 2.2 0.0498047C3.27696 0.0498047 4.15 0.922849 4.15 1.9998ZM11.95 1.9998C11.95 3.07676 11.077 3.9498 10 3.9498C8.92304 3.9498 8.05 3.07676 8.05 1.9998C8.05 0.922849 8.92304 0.0498047 10 0.0498047C11.077 0.0498047 11.95 0.922849 11.95 1.9998ZM17.8 3.9498C18.877 3.9498 19.75 3.07676 19.75 1.9998C19.75 0.922849 18.877 0.0498047 17.8 0.0498047C16.723 0.0498047 15.85 0.922849 15.85 1.9998C15.85 3.07676 16.723 3.9498 17.8 3.9498Z" fill="#8A9099"/>
</svg>
