<svg width="16" height="15" viewBox="0 0 16 15" fill="none" xmlns="http://www.w3.org/2000/svg">
<path fill-rule="evenodd" clip-rule="evenodd" d="M2.2 1.5C2.01435 1.5 1.8363 1.57375 1.70503 1.70503C1.57375 1.8363 1.5 2.01435 1.5 2.2V5.075H14.5V4.375C14.5 4.18935 14.4263 4.0113 14.295 3.88003C14.1637 3.74875 13.9857 3.675 13.8 3.675H7.275C7.02424 3.675 6.79006 3.54967 6.65096 3.34103L5.42361 1.5H2.2ZM14.5 6.575H1.5V12.35C1.5 12.5357 1.57375 12.7137 1.70503 12.845C1.8363 12.9763 2.01435 13.05 2.2 13.05H13.8C13.9857 13.05 14.1637 12.9763 14.295 12.845C14.4263 12.7137 14.5 12.5357 14.5 12.35V6.575ZM0.644365 0.644365C1.05695 0.231785 1.61652 0 2.2 0H5.825C6.07577 0 6.30994 0.125326 6.44904 0.333975L7.67639 2.175H13.8C14.3835 2.175 14.9431 2.40679 15.3556 2.81937C15.7682 3.23194 16 3.79152 16 4.375V12.35C16 12.9335 15.7682 13.4931 15.3556 13.9056C14.9431 14.3182 14.3835 14.55 13.8 14.55H2.2C1.61652 14.55 1.05694 14.3182 0.644365 13.9056C0.231785 13.4931 0 12.9335 0 12.35V2.2C0 1.61652 0.231785 1.05695 0.644365 0.644365Z" fill="#8A9099"/>
</svg>
