<svg width="22" height="22" viewBox="0 0 22 22" fill="none" xmlns="http://www.w3.org/2000/svg">
<path d="M11 21C16.5228 21 21 16.5228 21 11C21 5.47715 16.5228 1 11 1C5.47715 1 1 5.47715 1 11C1 16.5228 5.47715 21 11 21Z" fill="#FFD93B"/>
<path d="M21.0002 11.0002C21.0002 16.5252 16.5221 21.0002 11.0002 21.0002C7.85644 21.0002 5.05019 19.5502 3.21582 17.2783C4.93144 18.6658 7.11582 19.4939 9.49394 19.4939C15.0158 19.4939 19.4939 15.0189 19.4939 9.49394C19.4939 7.11582 18.6658 4.93144 17.2783 3.21582C19.5471 5.05019 21.0002 7.85644 21.0002 11.0002Z" fill="#F4C534"/>
<path d="M9.15375 4.84413C7.81875 4.32913 6.53937 4.516 5.73438 5.42725C6.25875 3.94663 7.68875 3.31413 9.01937 3.63538L9.15375 4.84413Z" fill="#3E4347"/>
<path d="M10.6291 9.39769C10.6347 11.3446 9.38408 12.9233 7.83595 12.9233C6.28783 12.9233 5.02908 11.3452 5.02346 9.39769C5.01783 7.45082 6.26846 5.87207 7.81658 5.87207C9.36408 5.87207 10.6235 7.45082 10.6291 9.39769Z" fill="#3E4347"/>
<path d="M10.1285 9.39773C10.2579 11.0984 9.33226 12.4771 8.06101 12.4771C6.78976 12.4771 5.65414 11.0984 5.52476 9.39773C5.39539 7.69711 6.32101 6.31836 7.59226 6.31836C8.86351 6.31773 9.99914 7.69648 10.1285 9.39773Z" fill="white"/>
<path d="M8.65652 11.2878C9.32168 11.2878 9.8609 10.6845 9.8609 9.94027C9.8609 9.19607 9.32168 8.59277 8.65652 8.59277C7.99137 8.59277 7.45215 9.19607 7.45215 9.94027C7.45215 10.6845 7.99137 11.2878 8.65652 11.2878Z" fill="#3E4347"/>
<path d="M9.3114 9.72524C9.17765 9.84774 8.93702 9.79462 8.76765 9.61399C8.59827 9.43399 8.57015 9.18774 8.69702 9.07087C8.83077 8.94837 9.0714 8.99524 9.23452 9.18149C9.40452 9.36212 9.43827 9.60837 9.3114 9.72524Z" fill="#5A5F63"/>
<path d="M12.8447 4.84413C14.1797 4.32913 15.4591 4.516 16.2641 5.42725C15.7397 3.94663 14.3097 3.31413 12.9791 3.63538L12.8447 4.84413Z" fill="#3E4347"/>
<path d="M11.3701 9.39769C11.3645 11.3446 12.6151 12.9233 14.1633 12.9233C15.7114 12.9233 16.9701 11.3452 16.9758 9.39769C16.9814 7.45082 15.7308 5.87207 14.1826 5.87207C12.6351 5.87207 11.3758 7.45082 11.3701 9.39769Z" fill="#3E4347"/>
<path d="M11.8714 9.39773C11.7421 11.0984 12.6677 12.4771 13.9389 12.4771C15.2102 12.4771 16.3458 11.0984 16.4752 9.39773C16.6046 7.69711 15.6789 6.31836 14.4077 6.31836C13.1364 6.31773 12.0008 7.69648 11.8714 9.39773Z" fill="white"/>
<path d="M13.344 11.2878C14.0092 11.2878 14.5484 10.6845 14.5484 9.94027C14.5484 9.19607 14.0092 8.59277 13.344 8.59277C12.6789 8.59277 12.1396 9.19607 12.1396 9.94027C12.1396 10.6845 12.6789 11.2878 13.344 11.2878Z" fill="#3E4347"/>
<path d="M12.689 9.72524C12.8222 9.84774 13.0634 9.79462 13.2328 9.61399C13.4022 9.43399 13.4297 9.18774 13.3034 9.07087C13.1703 8.94837 12.929 8.99524 12.7659 9.18149C12.5959 9.36212 12.5622 9.60837 12.689 9.72524Z" fill="#5A5F63"/>
<path d="M16.2508 15.4362C16.2508 15.4362 15.9558 15.0524 15.6008 14.7987C15.5633 14.7674 15.5258 14.7424 15.482 14.7174C14.8664 16.5668 12.9477 17.2943 11.007 17.3674C8.12892 17.2712 6.75267 15.7218 6.51955 14.7112C6.48205 14.7424 6.4383 14.7674 6.39455 14.7987C6.06205 15.0362 5.7508 15.4362 5.7508 15.4362C5.70955 15.2299 5.85955 14.7981 6.2133 14.5487C6.51142 14.3206 6.9608 14.2606 7.19455 14.3424C6.98955 14.4449 6.74955 14.5612 6.55705 14.6862C6.96142 15.4943 8.40455 16.6899 10.9883 16.7424C13.5027 16.6981 14.9814 15.6174 15.4445 14.6924C15.1845 14.5237 15.0752 14.4843 14.807 14.3424C15.0408 14.2606 15.4902 14.3206 15.7883 14.5487C16.0708 14.7474 16.2508 15.0593 16.2508 15.4362Z" fill="#3E4347"/>
<path d="M9.78223 18.2285C9.9941 18.2616 10.6622 18.5641 10.8729 18.5516C11.4291 18.5779 12.0247 18.2285 12.0247 18.2285C11.9179 18.6285 11.4797 19.0123 10.9004 18.9948C10.3172 18.9704 9.86848 18.5754 9.78223 18.2285Z" fill="#F4C534"/>
</svg>
