<svg width="16" height="16" viewBox="0 0 16 16" fill="none" xmlns="http://www.w3.org/2000/svg">
<path fill-rule="evenodd" clip-rule="evenodd" d="M2.36111 1.5C1.88553 1.5 1.5 1.88553 1.5 2.36111V13.6389C1.5 14.0209 1.74869 14.3447 2.09298 14.4574L10.6919 5.85856C10.9848 5.56566 11.4596 5.56566 11.7525 5.85856L14.5 8.60603V2.36111C14.5 1.88553 14.1145 1.5 13.6389 1.5H2.36111ZM14.5 10.7273L11.2222 7.44955L4.17174 14.5H13.6389C14.1145 14.5 14.5 14.1145 14.5 13.6389V10.7273ZM0 2.36111C0 1.05711 1.05711 0 2.36111 0H13.6389C14.9429 0 16 1.05711 16 2.36111V13.6389C16 14.9429 14.9429 16 13.6389 16H2.36111C1.05711 16 0 14.9429 0 13.6389V2.36111ZM5.18056 4.7222C4.92743 4.7222 4.72223 4.9274 4.72223 5.18053C4.72223 5.43366 4.92743 5.63887 5.18056 5.63887C5.43369 5.63887 5.6389 5.43366 5.6389 5.18053C5.6389 4.9274 5.43369 4.7222 5.18056 4.7222ZM3.22223 5.18053C3.22223 4.09897 4.099 3.2222 5.18056 3.2222C6.26212 3.2222 7.1389 4.09897 7.1389 5.18053C7.1389 6.26209 6.26212 7.13887 5.18056 7.13887C4.099 7.13887 3.22223 6.26209 3.22223 5.18053Z" fill="#8A9099"/>
</svg>
