<svg width="16" height="12" viewBox="0 0 16 12" fill="none" xmlns="http://www.w3.org/2000/svg">
<path fill-rule="evenodd" clip-rule="evenodd" d="M0.799805 1.27461C0.799805 0.901817 1.1791 0.599609 1.64699 0.599609H14.3525C14.8204 0.599609 15.1997 0.901817 15.1997 1.27461C15.1997 1.6474 14.8204 1.94961 14.3525 1.94961H1.64699C1.1791 1.94961 0.799805 1.6474 0.799805 1.27461Z" fill="#8A9099"/>
<path fill-rule="evenodd" clip-rule="evenodd" d="M0.799805 5.94648C0.799805 5.57369 1.1791 5.27148 1.64699 5.27148H14.3525C14.8204 5.27148 15.1997 5.57369 15.1997 5.94648C15.1997 6.31928 14.8204 6.62148 14.3525 6.62148H1.64699C1.1791 6.62148 0.799805 6.31928 0.799805 5.94648Z" fill="#8A9099"/>
<path fill-rule="evenodd" clip-rule="evenodd" d="M0.799805 10.6193C0.799805 10.2465 1.1791 9.94434 1.64699 9.94434H14.3525C14.8204 9.94434 15.1997 10.2465 15.1997 10.6193C15.1997 10.9921 14.8204 11.2943 14.3525 11.2943H1.64699C1.1791 11.2943 0.799805 10.9921 0.799805 10.6193Z" fill="#8A9099"/>
</svg>
