<svg width="20" height="20" viewBox="0 0 20 20" fill="none" xmlns="http://www.w3.org/2000/svg">
<path fill-rule="evenodd" clip-rule="evenodd" d="M11.6004 2.00039C11.6004 1.11673 10.884 0.400391 10.0004 0.400391C9.11673 0.400391 8.40039 1.11673 8.40039 2.00039V8.40039H2.00039C1.11673 8.40039 0.400391 9.11673 0.400391 10.0004C0.400391 10.884 1.11673 11.6004 2.00039 11.6004H8.40039V18.0004C8.40039 18.884 9.11673 19.6004 10.0004 19.6004C10.884 19.6004 11.6004 18.884 11.6004 18.0004V11.6004H18.0004C18.884 11.6004 19.6004 10.884 19.6004 10.0004C19.6004 9.11673 18.884 8.40039 18.0004 8.40039H11.6004V2.00039Z" fill="#8A9099"/>
</svg>
