<svg width="16" height="16" viewBox="0 0 16 16" fill="none" xmlns="http://www.w3.org/2000/svg">
<path fill-rule="evenodd" clip-rule="evenodd" d="M7 5.96667C8.26683 5.96667 9.26924 4.95327 9.26924 3.73333C9.26924 2.5134 8.26683 1.5 7 1.5C5.73318 1.5 4.73077 2.5134 4.73077 3.73333C4.73077 4.95327 5.73318 5.96667 7 5.96667ZM7 7.46667C9.08169 7.46667 10.7692 5.7952 10.7692 3.73333C10.7692 1.67147 9.08169 0 7 0C4.91832 0 3.23077 1.67147 3.23077 3.73333C3.23077 5.7952 4.91832 7.46667 7 7.46667ZM8.27 10.0333H5.46342C3.33108 10.0333 1.5 11.851 1.5 14.2222C1.5 14.3188 1.5364 14.3929 1.58194 14.4403C1.62647 14.4867 1.67003 14.5 1.70732 14.5H8.35C8.35 14.5 9 14.5977 9 15.25C9 15.9023 8.35 16 8.35 16H1.70732C0.764392 16 0 15.2041 0 14.2222C0 11.0803 2.44606 8.53334 5.46342 8.53334H8.27C8.77249 8.53334 9 8.97266 9 9.3C9 9.6 8.7748 10.0333 8.27 10.0333ZM13.5 9.75C13.5 9.33579 13.1642 9 12.75 9C12.3358 9 12 9.33579 12 9.75V11.5H10.25C9.83579 11.5 9.5 11.8358 9.5 12.25C9.5 12.6642 9.83579 13 10.25 13H12V14.75C12 15.1642 12.3358 15.5 12.75 15.5C13.1642 15.5 13.5 15.1642 13.5 14.75V13H15.25C15.6642 13 16 12.6642 16 12.25C16 11.8358 15.6642 11.5 15.25 11.5H13.5V9.75Z" fill="#8A9099"/>
</svg>
